STARTFONT 2.1
FONT -Monotype-Times New Roman-Regular-I-Normal--33-240-100-100-P-166-iso8859-7
SIZE 24 100 100
FONTBOUNDINGBOX 42 36 -5 -7

STARTPROPERTIES 24
FOUNDRY "Monotype"
FAMILY_NAME "Times New Roman"
WEIGHT_NAME "Regular"
SLANT "I"
SETWIDTH_NAME "Normal"
ADD_STYLE_NAME ""
PIXEL_SIZE 33
POINT_SIZE 240
RESOLUTION_X 100
RESOLUTION_Y 100
SPACING "P"
AVERAGE_WIDTH 166
CHARSET_REGISTRY "iso8859"
CHARSET_ENCODING "7"
FACE_NAME "Times New Roman Inclined ISO Latin Greek"
_DEC_DEVICE_FONTNAMES "PS=timesnewroman-in-latgreek"
COPYRIGHT "Copyright (c) 1993 Monotype Typography Ltd."
CAP_HEIGHT 24
X_HEIGHT 16
WEIGHT 10
QUAD_WIDTH 20
DEFAULT_CHAR 160
FONT_DESCENT 7
FONT_ASCENT 29
ENDPROPERTIES

CHARS 185

STARTCHAR space
ENCODING 32
SWIDTH 250 0
DWIDTH 8 0
BBX 0 0 0 0
BITMAP
ENDCHAR

STARTCHAR exclam
ENCODING 33
SWIDTH 271 0
DWIDTH 9 0
BBX 8 23 0 0
BITMAP
03
07
07
07
06
0E
0E
0C
0C
08
08
18
10
10
10
20
20
00
00
00
E0
E0
E0
ENDCHAR

STARTCHAR quotedbl
ENCODING 34
SWIDTH 406 0
DWIDTH 13 0
BBX 9 9 3 14
BITMAP
E380
E380
E380
E380
E380
E380
4100
4100
4100
ENDCHAR

STARTCHAR numbersign
ENCODING 35
SWIDTH 667 0
DWIDTH 22 0
BBX 19 23 2 -2
BITMAP
030180
030180
030180
030180
030300
060300
060300
FFFFE0
FFFFE0
060600
0C0600
0C0600
0C0600
0C0E00
180C00
FFFFE0
FFFFE0
180C00
181800
301800
301800
301800
303800
ENDCHAR

STARTCHAR dollar
ENCODING 36
SWIDTH 500 0
DWIDTH 17 0
BBX 16 26 0 -2
BITMAP
0008
00F8
0316
0617
0C22
0C22
0C22
0E60
0F40
07C0
07C0
01E0
00F0
00B8
013C
011C
010C
420C
420C
420C
4618
E430
7460
1F80
0800
0800
ENDCHAR

STARTCHAR percent
ENCODING 37
SWIDTH 823 0
DWIDTH 27 0
BBX 26 23 1 0
BITMAP
0E0000C0
11800100
30800200
20800400
60800800
41801000
C1802000
C100C000
C3018000
42030000
44060000
380C0E00
00181180
00303080
00602080
00C06080
01804180
0300C180
0400C100
0800C300
10004200
20004400
C0003800
ENDCHAR

STARTCHAR ampersand
ENCODING 38
SWIDTH 719 0
DWIDTH 24 0
BBX 22 23 1 0
BITMAP
000F80
0019C0
0030C0
0030C0
0070C0
007180
007380
007600
007800
00F000
07B800
0E38FC
183860
383840
703CC0
701C80
F01F00
F01E00
F00E00
780F00
7C1B84
3FE3F8
0F80E0
ENDCHAR

STARTCHAR quoteright
ENCODING 39
SWIDTH 271 0
DWIDTH 9 0
BBX 5 7 3 16
BITMAP
10
38
38
18
10
30
C0
ENDCHAR

STARTCHAR parenleft
ENCODING 40
SWIDTH 500 0
DWIDTH 17 0
BBX 11 31 4 -7
BITMAP
0020
0040
0080
0100
0200
0600
0C00
0800
1800
3000
3000
2000
6000
6000
4000
C000
C000
C000
8000
8000
8000
8000
8000
8000
8000
8000
4000
4000
4000
4000
2000
ENDCHAR

STARTCHAR parenright
ENCODING 41
SWIDTH 500 0
DWIDTH 17 0
BBX 11 31 1 -7
BITMAP
0040
0040
0040
0040
0060
0020
0020
0020
0020
0020
0020
0020
0020
0060
0060
0060
0040
00C0
00C0
00C0
0180
0180
0300
0200
0600
0C00
0800
1000
2000
4000
8000
ENDCHAR

STARTCHAR asterisk
ENCODING 42
SWIDTH 500 0
DWIDTH 17 0
BBX 12 14 5 10
BITMAP
0400
0E00
0E00
C670
E4E0
F5E0
1F00
0E00
F5E0
E4E0
C660
0E00
0E00
0400
ENDCHAR

STARTCHAR plus
ENCODING 43
SWIDTH 667 0
DWIDTH 22 0
BBX 18 18 2 0
BITMAP
00C000
00C000
00C000
00C000
00C000
00C000
00C000
00C000
FFFFC0
FFFFC0
00C000
00C000
00C000
00C000
00C000
00C000
00C000
00C000
ENDCHAR

STARTCHAR comma
ENCODING 44
SWIDTH 271 0
DWIDTH 9 0
BBX 5 7 0 -4
BITMAP
30
38
38
18
10
20
C0
ENDCHAR

STARTCHAR minus
ENCODING 45
SWIDTH 667 0
DWIDTH 22 0
BBX 18 2 2 8
BITMAP
FFFFC0
FFFFC0
ENDCHAR

STARTCHAR period
ENCODING 46
SWIDTH 271 0
DWIDTH 9 0
BBX 3 3 1 0
BITMAP
E0
E0
E0
ENDCHAR

STARTCHAR slash
ENCODING 47
SWIDTH 281 0
DWIDTH 9 0
BBX 14 24 -2 0
BITMAP
000C
0018
0018
0030
0030
0060
0060
00C0
00C0
0180
0180
0380
0300
0700
0600
0E00
0C00
1C00
1800
3800
3000
7000
6000
E000
ENDCHAR

STARTCHAR zero
ENCODING 48
SWIDTH 500 0
DWIDTH 17 0
BBX 15 23 1 0
BITMAP
00F0
0308
060C
0E06
0C06
1C06
3806
3806
780E
700E
700E
700E
F01E
E01C
E01C
E01C
E038
E038
6070
6060
60C0
3180
0E00
ENDCHAR

STARTCHAR one
ENCODING 49
SWIDTH 500 0
DWIDTH 17 0
BBX 12 23 2 0
BITMAP
0070
03F0
00E0
00E0
00E0
00E0
00C0
01C0
01C0
0180
0180
0380
0380
0300
0700
0700
0600
0600
0E00
0E00
1C00
1E00
FF80
ENDCHAR

STARTCHAR two
ENCODING 50
SWIDTH 500 0
DWIDTH 17 0
BBX 16 23 0 0
BITMAP
00F8
03FE
031E
040F
0007
0007
0007
0007
0006
000C
000C
0018
0030
0020
0040
0080
0100
0600
0C00
180C
3018
7FF0
FFF0
ENDCHAR

STARTCHAR three
ENCODING 51
SWIDTH 500 0
DWIDTH 17 0
BBX 15 23 1 0
BITMAP
00F0
01FC
021C
040E
000E
000E
000C
001C
0030
01C0
0FE0
01F0
0070
0038
0038
0038
0038
0030
0030
0020
6060
F880
7F00
ENDCHAR

STARTCHAR four
ENCODING 52
SWIDTH 500 0
DWIDTH 17 0
BBX 16 23 0 0
BITMAP
0003
0007
0006
000E
001E
002C
004C
009C
019C
0318
0638
0C38
1830
3030
6070
7FFE
FF7C
00E0
00E0
00C0
01C0
01C0
01C0
ENDCHAR

STARTCHAR five
ENCODING 53
SWIDTH 500 0
DWIDTH 17 0
BBX 15 23 0 0
BITMAP
01FE
01FE
01FE
0200
0200
0400
07C0
0FE0
01F0
0070
0038
0038
0018
0018
0018
0018
0010
0030
0020
4040
F080
FF00
3800
ENDCHAR

STARTCHAR six
ENCODING 54
SWIDTH 500 0
DWIDTH 17 0
BBX 16 23 1 0
BITMAP
0007
0038
00E0
01C0
0780
0F00
0E00
1C00
39E0
3C78
7038
701C
E01C
E01C
E01C
E01C
C03C
C038
C038
4070
60E0
31C0
0F00
ENDCHAR

STARTCHAR seven
ENCODING 55
SWIDTH 500 0
DWIDTH 17 0
BBX 14 23 3 0
BITMAP
3FFC
3FFC
7FF8
4018
8030
0020
0060
00C0
00C0
0180
0180
0300
0200
0600
0C00
0C00
1800
1000
3000
2000
6000
C000
4000
ENDCHAR

STARTCHAR eight
ENCODING 56
SWIDTH 500 0
DWIDTH 17 0
BBX 15 23 1 0
BITMAP
01F0
030C
0604
0C06
0C06
0C06
0E06
0F0C
0798
03F0
03C0
05E0
18F0
3070
6038
E038
C018
C018
C018
C030
6020
30C0
0F00
ENDCHAR

STARTCHAR nine
ENCODING 57
SWIDTH 500 0
DWIDTH 17 0
BBX 15 23 1 0
BITMAP
01F0
0308
060C
0E04
1C06
1C06
3806
3806
380E
380E
380E
381C
1C1C
1E7C
07B8
0070
0070
00E0
01C0
0380
0600
1800
E000
ENDCHAR

STARTCHAR colon
ENCODING 58
SWIDTH 333 0
DWIDTH 11 0
BBX 7 15 1 0
BITMAP
0E
0E
0E
00
00
00
00
00
00
00
00
00
E0
E0
E0
ENDCHAR

STARTCHAR semicolon
ENCODING 59
SWIDTH 333 0
DWIDTH 11 0
BBX 9 19 -1 -4
BITMAP
0380
0380
0380
0000
0000
0000
0000
0000
0000
0000
0000
0000
3800
3800
3800
1800
1000
3000
C000
ENDCHAR

STARTCHAR less
ENCODING 60
SWIDTH 668 0
DWIDTH 22 0
BBX 17 17 3 0
BITMAP
000080
000780
001F80
007C00
03F000
0F8000
3E0000
D00000
E00000
FC0000
1F0000
07C000
00F800
003E00
000F80
000180
000080
ENDCHAR

STARTCHAR equal
ENCODING 61
SWIDTH 667 0
DWIDTH 22 0
BBX 17 10 3 4
BITMAP
FFFF80
FFFF80
000000
000000
000000
000000
000000
000000
FFFF80
FFFF80
ENDCHAR

STARTCHAR greater
ENCODING 62
SWIDTH 667 0
DWIDTH 22 0
BBX 17 17 3 0
BITMAP
800000
E00000
FC0000
1F0000
07E000
00F800
003E00
000780
000380
001F00
007C00
03F000
0F8000
7E0000
F80000
C00000
800000
ENDCHAR

STARTCHAR question
ENCODING 63
SWIDTH 385 0
DWIDTH 13 0
BBX 12 23 1 0
BITMAP
0780
18C0
3060
3870
3870
0070
00F0
00E0
01C0
0380
0700
0400
0800
1000
1000
1000
2000
0000
0000
0000
E000
E000
E000
ENDCHAR

STARTCHAR at
ENCODING 64
SWIDTH 917 0
DWIDTH 30 0
BBX 28 30 1 -7
BITMAP
001FF000
00600C00
01800200
02000100
0C000080
08000040
18000040
30039820
200C5820
60183820
60303820
40603020
40E03020
C0C07020
C1C06040
C180E040
C380E040
C3816080
4382C180
43C4C300
41F8C610
60E0F830
20000020
30000040
180000C0
08000180
06000300
03000600
00E03800
001FC000
ENDCHAR

STARTCHAR A
ENCODING 65
SWIDTH 719 0
DWIDTH 24 0
BBX 22 23 0 0
BITMAP
000010
000030
000030
000070
0000F0
0001F0
000170
0002E0
0006E0
000CE0
0008E0
0010E0
0030E0
0060E0
00C0E0
00FFE0
0180E0
0301E0
0601E0
0401E0
0801E0
1C01E0
FE0FFC
ENDCHAR

STARTCHAR B
ENCODING 66
SWIDTH 667 0
DWIDTH 22 0
BBX 22 23 0 0
BITMAP
03FFE0
0078F0
007038
00703C
00F03C
00E03C
00E03C
00E078
01E070
01C1E0
01FF80
03CF80
03C1E0
0380E0
0380F0
0780F0
0700F0
0700F0
0F01E0
0F01E0
0E03C0
1E0F80
FFFE00
ENDCHAR

STARTCHAR C
ENCODING 67
SWIDTH 719 0
DWIDTH 24 0
BBX 22 23 3 0
BITMAP
001FC4
00703C
01C018
038018
070008
0E0008
1C0008
3C0000
380000
780000
780000
F00000
F00000
F00000
F00000
F00000
F00000
700000
780020
3C0040
1E0180
0F8600
03F800
ENDCHAR

STARTCHAR D
ENCODING 68
SWIDTH 771 0
DWIDTH 25 0
BBX 24 23 1 0
BITMAP
03FFC0
00F0F0
00F038
00F01C
00E01E
00E00E
01E00F
01C00F
01C00F
03C00F
03C00F
03800F
03800E
07800E
07001E
07001C
07003C
0F0038
0E0070
0E00E0
1E01C0
1E0F00
FFFC00
ENDCHAR

STARTCHAR E
ENCODING 69
SWIDTH 667 0
DWIDTH 22 0
BBX 23 23 1 0
BITMAP
03FFFE
00F01C
00E00C
00E004
00E004
01E000
01C000
01C080
03C080
03C300
03FF00
038300
078100
070100
070200
070000
0F0010
0E0010
0E0020
1E0060
1E00E0
3E07C0
FFFFC0
ENDCHAR

STARTCHAR F
ENCODING 70
SWIDTH 604 0
DWIDTH 20 0
BBX 23 23 0 0
BITMAP
03FFFE
00701E
007004
007004
00F004
00E000
00E000
01E040
01C080
01C180
01FF80
03C300
038100
038100
078100
070000
070000
070000
0F0000
0E0000
0E0000
1F0000
FFE000
ENDCHAR

STARTCHAR G
ENCODING 71
SWIDTH 719 0
DWIDTH 24 0
BBX 22 23 2 0
BITMAP
003FC4
00E078
03C038
070018
0E0008
1E0010
1C0010
380000
780000
780000
700000
F00FFC
F003E0
F001E0
F001C0
F001C0
7003C0
700380
780380
380780
1C0780
0F0F00
03FC00
ENDCHAR

STARTCHAR H
ENCODING 72
SWIDTH 823 0
DWIDTH 27 0
BBX 28 23 1 0
BITMAP
03FE1FF0
00F807C0
00F00780
00E00780
00E00700
01E00700
01E00F00
01C00E00
01C00E00
03C01E00
03FFFE00
03801C00
07801C00
07803C00
07003800
07003800
0F007800
0E007800
0E007000
1E007000
1E00F000
3E01F000
FF87FC00
ENDCHAR

STARTCHAR I
ENCODING 73
SWIDTH 385 0
DWIDTH 13 0
BBX 16 23 0 0
BITMAP
03FF
00F8
0070
00F0
00F0
00E0
00E0
01E0
01C0
01C0
03C0
03C0
0380
0380
0780
0700
0700
0F00
0F00
0E00
1E00
1F00
FFC0
ENDCHAR

STARTCHAR J
ENCODING 74
SWIDTH 500 0
DWIDTH 17 0
BBX 18 23 0 0
BITMAP
007FC0
001F00
000E00
000E00
001E00
001C00
001C00
003C00
003800
003800
007800
007800
007000
007000
00F000
00E000
00E000
00E000
71C000
F1C000
E38000
670000
3C0000
ENDCHAR

STARTCHAR K
ENCODING 75
SWIDTH 719 0
DWIDTH 24 0
BBX 26 23 0 0
BITMAP
01FF0FC0
00780700
00780E00
00701800
00703000
00F06000
00E18000
00E30000
01E60000
01C80000
01DC0000
01DC0000
03DE0000
038E0000
038F0000
07878000
07838000
0703C000
0701C000
0F01E000
0E00F000
1F01F800
FFC3FE00
ENDCHAR

STARTCHAR L
ENCODING 76
SWIDTH 667 0
DWIDTH 22 0
BBX 21 23 1 0
BITMAP
07FF00
00F800
00F000
00E000
00E000
01E000
01E000
01C000
01C000
03C000
038000
038000
078000
078000
070000
070000
0F0000
0E0008
0E0010
0E0030
1E0060
1E01E0
FFFFE0
ENDCHAR

STARTCHAR M
ENCODING 77
SWIDTH 990 0
DWIDTH 33 0
BBX 33 23 1 0
BITMAP
03F0001F80
0078003C00
0078007C00
0078007800
00B800B800
00B801B800
00B8017000
01B8027000
013804F000
01380CE000
013C08E000
023C10E000
021C31E000
021C21C000
061C41C000
041CC3C000
041D838000
0C1D038000
081E038000
081E078000
181C078000
18080F8000
FF087FE000
ENDCHAR

STARTCHAR N
ENCODING 78
SWIDTH 771 0
DWIDTH 25 0
BBX 27 23 1 0
BITMAP
07E01FE0
00E00700
00F00200
00F00600
00B80600
01B80400
01380400
013C0C00
011C0800
021E0800
020E0800
020E1800
060F1000
04071000
04073000
0403A000
0C03A000
0803E000
0801E000
1801C000
1800C000
3800C000
FE008000
ENDCHAR

STARTCHAR O
ENCODING 79
SWIDTH 771 0
DWIDTH 25 0
BBX 22 23 3 0
BITMAP
001F80
0070E0
01C070
038038
070038
0E003C
1E003C
1C003C
3C003C
38003C
78003C
780038
700078
F00070
F000F0
F000E0
F001E0
7001C0
700380
700700
380E00
1C3800
07E000
ENDCHAR

STARTCHAR P
ENCODING 80
SWIDTH 667 0
DWIDTH 22 0
BBX 21 23 1 0
BITMAP
03FFC0
00F0F0
00F078
00F038
00E038
00E038
01E038
01C078
01C070
01C0E0
03C3C0
03FF00
038000
078000
078000
070000
070000
0F0000
0E0000
0E0000
1E0000
3E0000
FFC000
ENDCHAR

STARTCHAR Q
ENCODING 81
SWIDTH 771 0
DWIDTH 25 0
BBX 22 29 3 -6
BITMAP
001F80
0070E0
01C070
038038
070038
0E003C
1E003C
1C003C
3C003C
38003C
780038
780038
700078
F00070
F000F0
F000E0
F001E0
7001C0
700380
700700
380E00
1C3800
07C000
030000
040008
080010
1FF060
7FFFC0
40FF00
ENDCHAR

STARTCHAR R
ENCODING 82
SWIDTH 719 0
DWIDTH 24 0
BBX 23 23 1 0
BITMAP
03FFE0
0078F0
007078
00703C
00F03C
00E03C
00E03C
00E038
01E078
01C0F0
01C3C0
03DE00
03CF00
038700
038780
078380
0703C0
0701C0
0F01E0
0F00E0
0E00F0
1F0070
FFC07E
ENDCHAR

STARTCHAR S
ENCODING 83
SWIDTH 604 0
DWIDTH 20 0
BBX 19 23 2 0
BITMAP
00FC20
0383E0
0700E0
0E0040
0E0040
0E0040
0F0040
078000
07C000
03E000
01F000
00FC00
007E00
001E00
001F00
400F00
400700
400700
400700
E00E00
F01E00
F83C00
87F000
ENDCHAR

STARTCHAR T
ENCODING 84
SWIDTH 667 0
DWIDTH 22 0
BBX 22 23 3 0
BITMAP
3FFFFC
383818
203808
407808
407808
407008
007000
00F000
00E000
00E000
00E000
01E000
01C000
01C000
03C000
038000
038000
038000
078000
070000
070000
0F8000
FFE000
ENDCHAR

STARTCHAR U
ENCODING 85
SWIDTH 771 0
DWIDTH 25 0
BBX 23 23 5 0
BITMAP
7FE0FE
1F0038
1E0030
1E0030
1C0020
1C0020
3C0020
380040
380040
780040
780080
700080
700080
F00180
E00100
E00100
E00300
E00200
E00600
700C00
381800
1FF000
078000
ENDCHAR

STARTCHAR V
ENCODING 86
SWIDTH 719 0
DWIDTH 24 0
BBX 22 23 5 0
BITMAP
FF81FC
1E0070
1C0060
1C00C0
1C0180
1C0100
1C0200
1C0400
1C0C00
1C1800
1C1000
3C2000
3C4000
3CC000
398000
390000
3A0000
3C0000
3C0000
380000
300000
200000
200000
ENDCHAR

STARTCHAR W
ENCODING 87
SWIDTH 990 0
DWIDTH 33 0
BBX 31 23 6 0
BITMAP
FF9FF0FE
3C078038
3C078030
3C038020
3C038040
38078080
380F8180
381B8100
38170200
38270600
38670400
38470800
38871000
39073000
3B072000
3A074000
3C07C000
3C078000
78070000
70060000
60060000
600C0000
40080000
ENDCHAR

STARTCHAR X
ENCODING 88
SWIDTH 719 0
DWIDTH 24 0
BBX 26 23 1 0
BITMAP
07FC1FC0
00F00700
00700C00
00700800
00781000
00782000
00384000
00388000
00390000
003F0000
001E0000
001C0000
001C0000
003E0000
006E0000
00CE0000
018F0000
030F0000
02070000
04070000
08078000
38078000
FE3FE000
ENDCHAR

STARTCHAR Y
ENCODING 89
SWIDTH 719 0
DWIDTH 24 0
BBX 21 23 6 0
BITMAP
FFC3F8
1E00E0
1E00C0
0E0180
0E0300
0F0200
070400
070800
079800
03B000
03A000
03C000
03C000
038000
038000
078000
070000
070000
070000
0F0000
0E0000
1F0000
FFC000
ENDCHAR

STARTCHAR Z
ENCODING 90
SWIDTH 719 0
DWIDTH 24 0
BBX 24 23 1 0
BITMAP
07FFFF
06003E
08007C
080078
1000F0
0001E0
0003C0
000780
000F80
001F00
003E00
003C00
007800
00F000
01E000
03C000
078000
0F8008
1F0008
3E0010
3C0030
7801F0
FFFFE0
ENDCHAR

STARTCHAR bracketleft
ENCODING 91
SWIDTH 500 0
DWIDTH 17 0
BBX 14 30 2 -7
BITMAP
00FC
00C0
00C0
01C0
0180
0180
0380
0380
0300
0300
0700
0600
0600
0E00
0E00
0C00
0C00
1C00
1800
1800
3800
3800
3000
3000
7000
6000
6000
E000
E000
FC00
ENDCHAR

STARTCHAR backslash
ENCODING 92
SWIDTH 281 0
DWIDTH 9 0
BBX 14 24 -2 0
BITMAP
C000
6000
6000
3000
3000
1800
1800
0C00
0C00
0600
0600
0300
0300
0180
0180
00C0
00C0
0060
0060
0030
0030
0018
0018
001C
ENDCHAR

STARTCHAR bracketright
ENCODING 93
SWIDTH 500 0
DWIDTH 17 0
BBX 15 30 1 -7
BITMAP
00FE
000C
000C
001C
0018
0018
0038
0038
0030
0030
0070
0060
0060
00E0
00E0
00C0
00C0
01C0
0180
0180
0380
0380
0300
0300
0700
0600
0600
0E00
0E00
FC00
ENDCHAR

STARTCHAR asciicircum
ENCODING 94
SWIDTH 427 0
DWIDTH 14 0
BBX 15 11 0 12
BITMAP
0300
0380
0780
06C0
0EE0
1C60
1870
3830
3038
7018
E01E
ENDCHAR

STARTCHAR underscore
ENCODING 95
SWIDTH 500 0
DWIDTH 17 0
BBX 17 2 0 -4
BITMAP
FFFF80
FFFF80
ENDCHAR

STARTCHAR quoteleft
ENCODING 96
SWIDTH 271 0
DWIDTH 9 0
BBX 5 7 4 16
BITMAP
18
20
40
C0
E0
E0
E0
ENDCHAR

STARTCHAR a
ENCODING 97
SWIDTH 500 0
DWIDTH 17 0
BBX 15 15 1 0
BITMAP
00E6
031E
060E
0C0C
181C
381C
3018
7018
6038
E038
E050
E0B2
E174
7E78
3870
ENDCHAR

STARTCHAR b
ENCODING 98
SWIDTH 500 0
DWIDTH 17 0
BBX 15 24 1 0
BITMAP
0380
0F80
0300
0300
0700
0600
0600
0E00
0E00
0C78
0DFC
1E1E
1C0E
180E
380E
380E
300C
701C
7018
6018
6030
E060
6180
1E00
ENDCHAR

STARTCHAR c
ENCODING 99
SWIDTH 438 0
DWIDTH 14 0
BBX 13 15 1 0
BITMAP
00E0
0718
0C18
1838
3830
3000
7000
6000
E000
E000
E000
E020
7060
7880
3F00
ENDCHAR

STARTCHAR d
ENCODING 100
SWIDTH 500 0
DWIDTH 17 0
BBX 18 24 1 0
BITMAP
0001C0
000FC0
000180
000180
000380
000300
000300
000700
000700
00E600
031A00
060E00
0C0C00
180C00
381C00
701C00
703800
603800
E05800
E0B000
E13200
E27400
7C7800
383000
ENDCHAR

STARTCHAR e
ENCODING 101
SWIDTH 438 0
DWIDTH 14 0
BBX 13 15 1 0
BITMAP
01F0
0618
0C18
1838
3830
3060
61C0
7E00
E000
E000
E000
E030
7040
7F80
1C00
ENDCHAR

STARTCHAR f
ENCODING 102
SWIDTH 333 0
DWIDTH 11 0
BBX 21 31 -5 -7
BITMAP
000070
000198
000318
000600
000E00
000C00
001C00
001C00
003800
01FE00
003800
003000
003000
007000
007000
006000
006000
00E000
00E000
00C000
00C000
01C000
018000
018000
018000
030000
030000
020000
C40000
C80000
F00000
ENDCHAR

STARTCHAR g
ENCODING 103
SWIDTH 500 0
DWIDTH 17 0
BBX 17 22 -1 -7
BITMAP
01F000
031F80
061F00
0C1C00
1C1C00
1C1C00
1C1800
1C3800
0C7000
03C000
060000
080000
1C0000
0F8000
1FE000
20F800
403800
C01800
C01800
C01000
706000
1F8000
ENDCHAR

STARTCHAR h
ENCODING 104
SWIDTH 500 0
DWIDTH 17 0
BBX 15 24 0 0
BITMAP
0180
0F80
0380
0300
0300
0700
0700
0600
0E00
0E1C
0C3E
0C4E
1C8E
1D0C
1A0C
3C1C
3818
3818
3038
7038
7032
6072
E07C
E070
ENDCHAR

STARTCHAR i
ENCODING 105
SWIDTH 271 0
DWIDTH 9 0
BBX 8 21 2 0
BITMAP
07
07
07
00
00
00
0E
7C
1C
1C
18
38
38
30
70
70
60
62
E4
F8
60
ENDCHAR

STARTCHAR j
ENCODING 106
SWIDTH 271 0
DWIDTH 9 0
BBX 14 28 -4 -7
BITMAP
001C
001C
001C
0000
0000
0000
0038
01F0
0030
0070
0070
0060
0060
00E0
00C0
00C0
01C0
01C0
0180
0180
0380
0300
0300
0300
0600
C400
C800
F000
ENDCHAR

STARTCHAR k
ENCODING 107
SWIDTH 531 0
DWIDTH 18 0
BBX 18 24 0 0
BITMAP
078000
0B8000
038000
030000
030000
070000
070000
060000
060000
0E1FC0
0C0E00
0C1800
1C2000
1C4000
198000
1B8000
3DC000
30C000
30C000
70E000
706100
607200
603C00
E03000
ENDCHAR

STARTCHAR l
ENCODING 108
SWIDTH 271 0
DWIDTH 9 0
BBX 9 24 1 0
BITMAP
0380
0F80
0300
0300
0700
0600
0600
0E00
0E00
0C00
1C00
1C00
1800
1800
3800
3000
3000
7000
7000
6000
6400
E800
F000
6000
ENDCHAR

STARTCHAR m
ENCODING 109
SWIDTH 771 0
DWIDTH 25 0
BBX 24 15 0 0
BITMAP
0E1C0E
7E3E1F
0C4E27
1C8E47
1D0C86
1A0D0E
3C1D0E
3C1A0C
381C0C
30381C
70381C
703019
603039
E0703E
E07038
ENDCHAR

STARTCHAR n
ENCODING 110
SWIDTH 500 0
DWIDTH 17 0
BBX 15 15 0 0
BITMAP
0E1C
7C3E
0C4E
1C8E
1D0C
1A1C
3C1C
3C18
3838
3038
7030
7032
6074
E078
E030
ENDCHAR

STARTCHAR o
ENCODING 111
SWIDTH 500 0
DWIDTH 17 0
BBX 14 15 1 0
BITMAP
01E0
0618
0C18
181C
381C
301C
701C
6018
E038
E038
E070
E060
60C0
7180
1E00
ENDCHAR

STARTCHAR p
ENCODING 112
SWIDTH 500 0
DWIDTH 17 0
BBX 19 21 -3 -6
BITMAP
006380
03EFC0
00F0E0
00D0E0
00E0E0
01C0E0
01C0E0
0180C0
0381C0
038180
030380
030300
070600
070C00
06F000
0E0000
0E0000
0C0000
1C0000
1C0000
FF0000
ENDCHAR

STARTCHAR q
ENCODING 113
SWIDTH 500 0
DWIDTH 17 0
BBX 15 22 1 -7
BITMAP
00E6
0316
0E1C
1C1C
181C
381C
7018
7038
6038
E070
E0B0
E0F0
E360
7E60
38E0
00E0
00C0
01C0
01C0
0180
03C0
1FE0
ENDCHAR

STARTCHAR r
ENCODING 114
SWIDTH 385 0
DWIDTH 13 0
BBX 11 15 1 0
BITMAP
0C60
7CE0
1960
1A60
1A00
3C00
3400
3800
3800
7000
7000
6000
6000
E000
E000
ENDCHAR

STARTCHAR s
ENCODING 115
SWIDTH 385 0
DWIDTH 13 0
BBX 12 15 0 0
BITMAP
03D0
0630
0C30
0C10
0E10
0E00
0700
0380
03C0
01C0
40C0
40C0
60C0
6180
9E00
ENDCHAR

STARTCHAR t
ENCODING 116
SWIDTH 333 0
DWIDTH 11 0
BBX 9 19 2 0
BITMAP
0300
0200
0600
1C00
7F80
1C00
1C00
1800
1800
3800
3800
3000
7000
7000
6000
6200
E400
E800
7000
ENDCHAR

STARTCHAR u
ENCODING 117
SWIDTH 500 0
DWIDTH 17 0
BBX 15 15 1 0
BITMAP
1C06
7C0E
9C0E
980C
181C
381C
3838
3018
7058
70B8
6130
E372
E674
F878
7030
ENDCHAR

STARTCHAR v
ENCODING 118
SWIDTH 438 0
DWIDTH 14 0
BBX 12 15 2 0
BITMAP
3060
F870
3870
3830
1820
1820
1840
1840
1C80
1D00
1D00
1E00
1C00
1800
1000
ENDCHAR

STARTCHAR w
ENCODING 119
SWIDTH 667 0
DWIDTH 22 0
BBX 19 15 2 0
BITMAP
601040
F030E0
707060
307020
30B020
30B040
313040
323080
323100
343200
343200
383400
303800
203000
202000
ENDCHAR

STARTCHAR x
ENCODING 120
SWIDTH 552 0
DWIDTH 18 0
BBX 17 15 1 0
BITMAP
060300
3F0780
030900
039000
01A000
01C000
01C000
00C000
016000
02E000
046000
047100
C87200
F03C00
C03800
ENDCHAR

STARTCHAR y
ENCODING 121
SWIDTH 500 0
DWIDTH 17 0
BBX 17 22 -1 -7
BITMAP
038300
1F8380
038380
018080
018080
018100
018100
018200
01C400
01C400
01C800
01D000
01E000
01E000
01C000
018000
010000
020000
040000
6C0000
F80000
600000
ENDCHAR

STARTCHAR z
ENCODING 122
SWIDTH 438 0
DWIDTH 14 0
BBX 14 15 0 0
BITMAP
0FFC
0FE8
1810
1020
0040
0040
0080
0100
0200
0400
0800
1010
2020
7FE0
FFE0
ENDCHAR

STARTCHAR braceleft
ENCODING 123
SWIDTH 479 0
DWIDTH 16 0
BBX 9 30 5 -7
BITMAP
0380
0400
0C00
1800
1800
1800
1C00
1C00
1C00
0C00
0C00
0C00
1800
3000
C000
2000
1800
0800
0C00
1C00
1C00
1C00
1C00
1C00
1800
1800
0800
0C00
0300
0080
ENDCHAR

STARTCHAR bar
ENCODING 124
SWIDTH 271 0
DWIDTH 9 0
BBX 2 28 4 -4
BITMAP
C0
C0
C0
C0
C0
C0
C0
C0
C0
C0
C0
C0
C0
C0
C0
C0
C0
C0
C0
C0
C0
C0
C0
C0
C0
C0
C0
C0
ENDCHAR

STARTCHAR braceright
ENCODING 125
SWIDTH 479 0
DWIDTH 16 0
BBX 9 30 3 -7
BITMAP
E000
1000
1800
0C00
0C00
0C00
1C00
1C00
1C00
1C00
1C00
0C00
0C00
0200
0180
0200
0C00
0C00
1800
1800
1C00
1C00
1C00
0C00
0C00
0C00
0800
1800
6000
8000
ENDCHAR

STARTCHAR asciitilde
ENCODING 126
SWIDTH 542 0
DWIDTH 18 0
BBX 18 5 1 6
BITMAP
3E0040
7F80C0
43F080
407F80
801E00
ENDCHAR

STARTCHAR space
ENCODING 160
SWIDTH 250 0
DWIDTH 9 0
BBX 0 0 0 0
BITMAP
ENDCHAR

STARTCHAR quoteleft
ENCODING 161
SWIDTH 271 0
DWIDTH 9 0
BBX 5 7 4 16
BITMAP
18
20
40
C0
E0
E0
E0
ENDCHAR

STARTCHAR quoteright
ENCODING 162
SWIDTH 271 0
DWIDTH 9 0
BBX 5 7 3 16
BITMAP
10
38
38
18
10
30
C0
ENDCHAR

STARTCHAR sterling
ENCODING 163
SWIDTH 500 0
DWIDTH 17 0
BBX 17 23 0 0
BITMAP
001F00
003380
006380
00C380
00C000
01C000
01C000
018000
038000
038000
038000
3FF800
070000
070000
070000
060000
060000
060000
040000
7E0000
8F8600
9BFC00
71F000
ENDCHAR

STARTCHAR brokenbar
ENCODING 166
SWIDTH 200 0
DWIDTH 7 0
BBX 1 30 3 -7
BITMAP
80
80
80
80
80
80
80
80
80
80
00
00
00
00
00
00
00
00
00
00
80
80
80
80
80
80
80
80
80
80
ENDCHAR

STARTCHAR section
ENCODING 167
SWIDTH 604 0
DWIDTH 20 0
BBX 18 30 0 -6
BITMAP
001E00
002180
004180
0081C0
008080
008000
00C000
00C000
00E000
003000
03F800
043C00
081C00
080E00
0C0600
0C0600
0E0600
070400
07CC00
03B000
01C000
00E000
006000
006000
002000
E02000
E02000
604000
318000
1E0000
ENDCHAR

STARTCHAR dieresis
ENCODING 168
SWIDTH 333 0
DWIDTH 11 0
BBX 9 3 4 17
BITMAP
6380
F380
6380
ENDCHAR

STARTCHAR copyright
ENCODING 169
SWIDTH 760 0
DWIDTH 25 0
BBX 23 23 1 0
BITMAP
00FE00
030180
0C0060
180030
307E98
21C188
430084
4700C4
C60042
8E0002
8E0002
8E0002
8E0002
8E0002
860002
470044
430084
21C308
307C18
180030
040060
030180
00FE00
ENDCHAR

STARTCHAR guillemotleft
ENCODING 171
SWIDTH 500 0
DWIDTH 17 0
BBX 14 15 1 1
BITMAP
0104
0208
0410
0C30
1860
30C0
61C0
E380
E380
6180
6180
30C0
30C0
1040
1060
ENDCHAR

STARTCHAR logicalnot
ENCODING 172
SWIDTH 667 0
DWIDTH 22 0
BBX 17 10 3 5
BITMAP
FFFF80
FFFF80
000180
000180
000180
000180
000180
000180
000180
000180
ENDCHAR

STARTCHAR hyphen
ENCODING 173
SWIDTH 333 0
DWIDTH 11 0
BBX 9 3 1 6
BITMAP
FF80
FF80
FF80
ENDCHAR

STARTCHAR endash
ENCODING 175
SWIDTH 500 0
DWIDTH 17 0
BBX 17 1 -1 7
BITMAP
FFFF80
ENDCHAR

STARTCHAR degree
ENCODING 176
SWIDTH 396 0
DWIDTH 13 0
BBX 10 10 5 13
BITMAP
1E00
7F80
6180
C0C0
C0C0
C0C0
C0C0
6180
3F80
1E00
ENDCHAR

STARTCHAR plusminus
ENCODING 177
SWIDTH 667 0
DWIDTH 22 0
BBX 18 23 2 0
BITMAP
00C000
00C000
00C000
00C000
00C000
00C000
00C000
00C000
FFFFC0
FFFFC0
00C000
00C000
00C000
00C000
00C000
00C000
00C000
00C000
000000
000000
000000
FFFFC0
FFFFC0
ENDCHAR

STARTCHAR twosuperior
ENCODING 178
SWIDTH 292 0
DWIDTH 10 0
BBX 10 11 1 12
BITMAP
0F80
19C0
00C0
00C0
0080
0100
0200
0400
1800
2180
FF00
ENDCHAR

STARTCHAR threesuperior
ENCODING 179
SWIDTH 292 0
DWIDTH 10 0
BBX 9 12 1 11
BITMAP
0F00
1180
0180
0180
0600
3E00
0700
0300
0300
0300
E600
7800
ENDCHAR

STARTCHAR acute
ENCODING 180
SWIDTH 333 0
DWIDTH 11 0
BBX 6 6 6 17
BITMAP
3C
38
70
60
40
80
ENDCHAR

STARTCHAR dieresisacute
ENCODING 181
SWIDTH 333 0
DWIDTH 11 0
BBX 10 6 3 17
BITMAP
0780
0600
0C00
EDC0
E9C0
F1C0
ENDCHAR

STARTCHAR afii9936
ENCODING 182
SWIDTH 719 0
DWIDTH 24 0
BBX 22 23 0 0
BITMAP
001E10
001C30
003830
003070
0020F0
0041F0
000170
0002E0
0004E0
0008E0
0018E0
0010E0
0020E0
0040E0
00FFE0
0180E0
0100E0
0201E0
0401E0
0C01E0
1801E0
3C01E0
FE0FFC
ENDCHAR

STARTCHAR periodcentered
ENCODING 183
SWIDTH 271 0
DWIDTH 9 0
BBX 3 3 3 9
BITMAP
E0
E0
E0
ENDCHAR

STARTCHAR afii9937
ENCODING 184
SWIDTH 734 0
DWIDTH 24 0
BBX 24 23 2 0
BITMAP
3DFFFF
70780E
607806
407002
C07002
80F000
00F000
00E040
00E040
01E1C0
01FF80
01C180
01C080
03C080
038100
038000
078008
078008
070010
070030
0F0070
1F03E0
7FFFE0
ENDCHAR

STARTCHAR afii9938
ENCODING 185
SWIDTH 890 0
DWIDTH 29 0
BBX 30 23 2 0
BITMAP
3DFF0FFC
707C03E0
707803C0
607803C0
40700380
80700380
00F00780
00E00780
00E00700
00E00700
01FFFF00
01C00E00
01C00E00
03C01E00
03801E00
03801C00
03801C00
07803C00
07003800
07003800
0F007800
1F007800
7FC3FF00
ENDCHAR

STARTCHAR afii9939
ENCODING 186
SWIDTH 483 0
DWIDTH 16 0
BBX 16 23 3 0
BITMAP
7BFF
7078
6078
C070
80F0
80F0
00E0
00E0
01E0
01C0
01C0
03C0
03C0
0380
0380
0780
0700
0700
0700
0F00
0E00
1F00
7FC0
ENDCHAR

STARTCHAR guillemotright
ENCODING 187
SWIDTH 500 0
DWIDTH 17 0
BBX 15 15 0 1
BITMAP
0820
0820
0C10
0410
0618
061C
071C
030E
071C
0E38
0C30
1860
30C0
6080
C300
ENDCHAR

STARTCHAR afii9940
ENCODING 188
SWIDTH 785 0
DWIDTH 26 0
BBX 24 23 1 0
BITMAP
3C07E0
701C38
70701C
60E00E
41C00E
83800F
07800F
07000F
0F000F
0E000F
1E000F
1E000E
1C001E
3C001C
3C003C
3C0038
3C0078
1C0070
1C00E0
1C01C0
0E0380
070E00
01F800
ENDCHAR

STARTCHAR onehalf
ENCODING 189
SWIDTH 823 0
DWIDTH 27 0
BBX 26 23 -1 -1
BITMAP
07C000C0
01800180
01800300
03000400
03000800
03001000
06002000
06004000
06008000
0C010000
0C020000
3F040F80
001819C0
003000C0
006000C0
00C00080
01800100
03000200
06000400
0C001800
18002180
3000FF00
E0000000
ENDCHAR

STARTCHAR afii9941
ENCODING 190
SWIDTH 831 0
DWIDTH 27 0
BBX 28 23 3 0
BITMAP
39FF0FF0
707C0380
603C0300
603C0200
C01C0600
801C0C00
001E1800
000E1000
000E2000
000F4000
0007C000
00078000
00070000
00070000
000F0000
000E0000
000E0000
001E0000
001E0000
001C0000
003C0000
003C0000
01FF8000
ENDCHAR

STARTCHAR afii9942
ENCODING 191
SWIDTH 771 0
DWIDTH 25 0
BBX 25 23 0 0
BITMAP
780FE000
70783800
60E00E00
C1C00E00
83800700
87800780
0F000780
0F000780
0E000780
1E000780
1E000700
1E000F00
1E000E00
0E001E00
0E003C00
07007800
0380F000
21E1C200
20420200
20420400
3FC7FC00
7FC7FC00
7F87F800
ENDCHAR

STARTCHAR afii9977
ENCODING 192
SWIDTH 271 0
DWIDTH 9 0
BBX 10 23 2 0
BITMAP
0700
0600
EDC0
EDC0
E9C0
1000
0000
0400
7C00
1C00
1800
1800
3800
3800
3000
3000
7000
6000
6000
E400
E800
F000
6000
ENDCHAR

STARTCHAR afii9793
ENCODING 193
SWIDTH 719 0
DWIDTH 24 0
BBX 22 23 0 0
BITMAP
000010
000030
000030
000070
0000F0
0001F0
000170
0002E0
0006E0
000CE0
0008E0
0010E0
0030E0
0060E0
00C0E0
00FFE0
0180E0
0301E0
0601E0
0401E0
0801E0
1C01E0
FE0FFC
ENDCHAR

STARTCHAR afii9794
ENCODING 194
SWIDTH 667 0
DWIDTH 22 0
BBX 22 23 0 0
BITMAP
03FFE0
0078F0
007038
00703C
00F03C
00E03C
00E03C
00E078
01E070
01C1E0
01FF80
03CF80
03C1E0
0380E0
0380F0
0780F0
0700F0
0700F0
0F01E0
0F01E0
0E03C0
1E0F80
FFFE00
ENDCHAR

STARTCHAR afii9796
ENCODING 195
SWIDTH 667 0
DWIDTH 22 0
BBX 24 23 1 0
BITMAP
03FFFF
00F006
007006
00F002
00E002
00E004
00E000
01E000
01C000
01C000
03C000
03C000
038000
038000
078000
070000
070000
0F0000
0F0000
0E0000
1E0000
3E0000
FFC000
ENDCHAR

STARTCHAR afii9797
ENCODING 196
SWIDTH 667 0
DWIDTH 22 0
BBX 18 23 1 0
BITMAP
000040
000040
0000C0
0001C0
0003C0
0003C0
0005C0
0009C0
001BC0
0033C0
0023C0
004380
00C380
018380
030380
020380
040380
0C0380
180380
300380
200380
400380
FFFF80
ENDCHAR

STARTCHAR afii9798
ENCODING 197
SWIDTH 667 0
DWIDTH 22 0
BBX 23 23 1 0
BITMAP
03FFFE
00F01C
00E00C
00E004
00E004
01E000
01C000
01C080
03C080
03C300
03FF00
038300
078100
070100
070200
070000
0F0010
0E0010
0E0020
1E0060
1E00E0
3E07C0
FFFFC0
ENDCHAR

STARTCHAR afii9801
ENCODING 198
SWIDTH 719 0
DWIDTH 24 0
BBX 24 23 1 0
BITMAP
07FFFF
06003E
08007C
080078
1000F0
0001E0
0003C0
000780
000F80
001F00
003E00
003C00
007800
00F000
01E000
03C000
078000
0F8008
1F0008
3E0010
3C0030
7801F0
FFFFE0
ENDCHAR

STARTCHAR afii9802
ENCODING 199
SWIDTH 823 0
DWIDTH 27 0
BBX 28 23 1 0
BITMAP
03FE1FF0
00F807C0
00F00780
00E00780
00E00700
01E00700
01E00F00
01C00E00
01C00E00
03C01E00
03FFFE00
03801C00
07801C00
07803C00
07003800
07003800
0F007800
0E007800
0E007000
1E007000
1E00F000
3E01F000
FF87FC00
ENDCHAR

STARTCHAR afii9803
ENCODING 200
SWIDTH 771 0
DWIDTH 25 0
BBX 22 23 2 0
BITMAP
001F80
00F0E0
01C070
038038
070038
0E003C
1E003C
3C003C
3C813C
79833C
79FE38
79FE78
710678
F20270
F204F0
F000E0
F001E0
7001C0
700380
700700
380E00
1C3800
07E000
ENDCHAR

STARTCHAR afii9804
ENCODING 201
SWIDTH 385 0
DWIDTH 13 0
BBX 16 23 0 0
BITMAP
03FF
00F8
0070
00F0
00E0
00E0
00E0
01E0
01C0
01C0
03C0
0380
0380
0380
0780
0700
0700
0F00
0E00
0E00
1E00
1E00
FFC0
ENDCHAR

STARTCHAR afii9805
ENCODING 202
SWIDTH 719 0
DWIDTH 24 0
BBX 26 23 0 0
BITMAP
01FF0FC0
00780700
00780E00
00701800
00703000
00F06000
00E18000
00E30000
01E60000
01C80000
01DC0000
01DC0000
03DE0000
038E0000
038F0000
07878000
07838000
0703C000
0701C000
0F01E000
0E00F000
1F01F800
FFC3FE00
ENDCHAR

STARTCHAR afii9806
ENCODING 203
SWIDTH 719 0
DWIDTH 24 0
BBX 21 23 1 0
BITMAP
000020
000060
000060
0000E0
0001E0
0003E0
0002E0
0005E0
0009E0
0019C0
0011C0
0021C0
0041C0
00C1C0
0081C0
0101C0
0201C0
0601C0
0C01C0
0803C0
1803C0
3803C0
FC1FF8
ENDCHAR

STARTCHAR afii9807
ENCODING 204
SWIDTH 990 0
DWIDTH 33 0
BBX 33 23 1 0
BITMAP
03F0001F80
0078003C00
0078007C00
0078007800
00B800B800
00B801B800
00B8017000
01B8027000
013804F000
01380CE000
013C08E000
023C10E000
021C31E000
021C21C000
061C41C000
041CC3C000
041D838000
0C1D038000
081E038000
081E078000
181C078000
18080F8000
FF087FE000
ENDCHAR

STARTCHAR afii9808
ENCODING 205
SWIDTH 771 0
DWIDTH 25 0
BBX 27 23 1 0
BITMAP
07E01FE0
00E00700
00F00200
00F00600
00B80600
01B80400
01380400
013C0C00
011C0800
021E0800
020E0800
020E1800
060F1000
04071000
04073000
0403A000
0C03A000
0803E000
0801E000
1801C000
1800C000
3800C000
FE008000
ENDCHAR

STARTCHAR afii9809
ENCODING 206
SWIDTH 667 0
DWIDTH 22 0
BBX 23 23 1 0
BITMAP
03FFFE
03FFFE
03FFFC
040004
040004
040004
000000
000000
008040
008080
01FF80
01FF80
010180
020100
020100
000000
400020
400020
400020
400040
7FFFC0
FFFFC0
FFFF80
ENDCHAR

STARTCHAR afii9810
ENCODING 207
SWIDTH 771 0
DWIDTH 25 0
BBX 22 23 3 0
BITMAP
001F80
0070E0
01C070
038038
070038
0E003C
1E003C
1C003C
3C003C
38003C
78003C
780038
700078
F00070
F000F0
F000E0
F001E0
7001C0
700380
700700
380E00
1C3800
07E000
ENDCHAR

STARTCHAR afii9811
ENCODING 208
SWIDTH 823 0
DWIDTH 27 0
BBX 28 23 1 0
BITMAP
03FFFFF0
00F00380
00F00780
00E00700
00E00700
01E00700
01C00F00
01C00E00
01C00E00
03C01E00
03801E00
03801C00
07801C00
07803C00
07003800
07003800
0F007800
0E007800
0E007000
1E007000
1E00F000
3E01F000
FF87FC00
ENDCHAR

STARTCHAR afii9813
ENCODING 209
SWIDTH 667 0
DWIDTH 22 0
BBX 21 23 1 0
BITMAP
03FFC0
00F0F0
00F078
00F038
00E038
00E038
01E038
01C078
01C070
01C0E0
03C3C0
03FF00
038000
078000
078000
070000
070000
0F0000
0E0000
0E0000
1E0000
3E0000
FFC000
ENDCHAR

STARTCHAR afii9814
ENCODING 211
SWIDTH 719 0
DWIDTH 24 0
BBX 23 23 1 0
BITMAP
03FFFE
03C00E
01C006
01E002
00E002
00F000
007000
007800
003800
003C00
001800
001000
002000
004000
008000
030000
060020
0C0020
180060
3000C0
7FFFC0
FFFFC0
FFFF80
ENDCHAR

STARTCHAR afii9816
ENCODING 212
SWIDTH 667 0
DWIDTH 22 0
BBX 22 23 3 0
BITMAP
3FFFFC
383818
203808
407808
407808
407008
007000
00F000
00E000
00E000
00E000
01E000
01C000
01C000
03C000
038000
038000
038000
078000
070000
070000
0F8000
FFE000
ENDCHAR

STARTCHAR afii9817
ENCODING 213
SWIDTH 719 0
DWIDTH 24 0
BBX 21 23 6 0
BITMAP
FFC3F8
1E00E0
1E00C0
0E0180
0E0300
0F0200
070400
070800
079800
03B000
03A000
03C000
03C000
038000
038000
078000
070000
070000
070000
0F0000
0E0000
1F0000
FFC000
ENDCHAR

STARTCHAR afii9818
ENCODING 214
SWIDTH 771 0
DWIDTH 25 0
BBX 22 23 2 0
BITMAP
007FE0
001F00
000E00
001E00
01FFC0
071CF0
1C1C38
383C18
78381C
70381C
F0381C
E0781C
E0703C
E07038
E0F078
E0E070
70E1E0
38E780
0FFC00
01C000
01C000
03E000
1FF800
ENDCHAR

STARTCHAR afii9819
ENCODING 215
SWIDTH 719 0
DWIDTH 24 0
BBX 26 23 1 0
BITMAP
07FC1FC0
00F00700
00700C00
00700800
00781000
00782000
00384000
00388000
00390000
003F0000
001E0000
001C0000
001C0000
003E0000
006E0000
00CE0000
018F0000
030F0000
02070000
04070000
08078000
38078000
FE3FE000
ENDCHAR

STARTCHAR afii9820
ENCODING 216
SWIDTH 823 0
DWIDTH 27 0
BBX 26 23 4 0
BITMAP
F0FFC7C0
383E0E00
381C0E00
381C1E00
783C1C00
78383C00
70383C00
70783C00
70787800
70707800
3070F000
38F1E000
1CE78000
03FC0000
01E00000
01E00000
01C00000
01C00000
03C00000
03800000
03800000
07C00000
3FF00000
ENDCHAR

STARTCHAR afii9821
ENCODING 217
SWIDTH 771 0
DWIDTH 25 0
BBX 24 23 1 0
BITMAP
001FC0
00F070
01C01C
03801C
07000E
0F000F
1E000F
1E000F
1C000F
3C000F
3C000E
3C001E
3C001C
1C003C
1C0078
0E00F0
0701E0
43C384
408404
408408
7F8FF8
FF8FF8
FF0FF0
ENDCHAR

STARTCHAR afii9943
ENCODING 218
SWIDTH 385 0
DWIDTH 13 0
BBX 17 29 0 0
BITMAP
070380
078780
078780
030300
000000
000000
03FE00
00F800
00F000
00F000
00E000
00E000
01E000
01C000
01C000
01C000
03C000
038000
038000
038000
078000
070000
070000
0F0000
0E0000
0E0000
1E0000
1E0000
FF8000
ENDCHAR

STARTCHAR afii9944
ENCODING 219
SWIDTH 719 0
DWIDTH 24 0
BBX 21 29 6 0
BITMAP
01C0E0
01E1E0
01E1E0
00C0C0
000000
000000
FFC3F8
1F00E0
0E00C0
0E0180
0F0300
070200
070400
078C00
039800
039000
03E000
01E000
03C000
03C000
038000
038000
078000
070000
070000
0F0000
0F0000
1F0000
FFE000
ENDCHAR

STARTCHAR afii9968
ENCODING 220
SWIDTH 500 0
DWIDTH 17 0
BBX 14 23 1 0
BITMAP
0038
0070
0060
0060
00C0
0080
0000
0000
039C
0C58
1838
3038
7030
6030
E070
E060
E060
C0C0
C0E0
C0E4
61B4
631C
1C18
ENDCHAR

STARTCHAR afii9969
ENCODING 221
SWIDTH 385 0
DWIDTH 13 0
BBX 12 23 1 0
BITMAP
00F0
01C0
01C0
0180
0100
0200
0000
0000
0F80
1860
3860
3060
1000
1000
0F80
3000
7000
E000
E040
E0E0
60C0
71C0
1F00
ENDCHAR

STARTCHAR afii9970
ENCODING 222
SWIDTH 500 0
DWIDTH 17 0
BBX 15 30 1 -7
BITMAP
003C
0038
0070
0060
0040
0080
0000
0000
1C1C
3C3E
4C4E
9C8E
1D0C
1A1C
1C1C
3C18
3818
3838
7038
7030
6070
E070
E060
0060
00E0
00E0
00C0
00C0
01C0
01C0
ENDCHAR

STARTCHAR afii9971
ENCODING 223
SWIDTH 271 0
DWIDTH 9 0
BBX 9 23 1 0
BITMAP
0380
0700
0700
0600
0C00
0800
0000
0000
7E00
1C00
1C00
1C00
1800
3800
3800
3000
7000
7000
6000
6400
E800
F800
6000
ENDCHAR

STARTCHAR afii9978
ENCODING 224
SWIDTH 438 0
DWIDTH 14 0
BBX 13 23 2 0
BITMAP
00E0
01C0
0180
1D38
1E38
1E38
0000
0000
60C0
7020
7030
7010
7010
7010
6010
6030
E030
C020
C060
C040
C0C0
4180
3E00
ENDCHAR

STARTCHAR afii9825
ENCODING 225
SWIDTH 500 0
DWIDTH 17 0
BBX 14 15 1 0
BITMAP
039C
0C58
1838
3038
7030
6030
E070
E060
E060
C0C0
C0E0
C0E4
61B4
631C
1C18
ENDCHAR

STARTCHAR afii9826
ENCODING 226
SWIDTH 500 0
DWIDTH 17 0
BBX 18 31 -1 -7
BITMAP
001F00
007180
0060C0
00C0C0
0180C0
0181C0
0181C0
038180
030300
030600
077800
060C00
060600
060700
0E0700
0C0700
0C0700
0C0700
1C0600
180E00
180C00
1C1C00
3A3800
39E000
300000
300000
700000
700000
600000
E00000
C00000
ENDCHAR

STARTCHAR afii9828
ENCODING 227
SWIDTH 438 0
DWIDTH 14 0
BBX 13 22 1 -7
BITMAP
3038
7838
C838
8418
0418
0410
0410
0420
0440
0440
0480
0500
0600
0400
0C00
0C00
1800
3800
3800
7000
7000
6000
ENDCHAR

STARTCHAR afii9829
ENCODING 228
SWIDTH 438 0
DWIDTH 14 0
BBX 16 24 -1 0
BITMAP
007C
008E
0107
0102
0180
00C0
00E0
0070
0018
007C
019C
060E
1C0E
380E
300E
700E
701C
E01C
E038
E038
E070
60E0
3180
1E00
ENDCHAR

STARTCHAR afii9830
ENCODING 229
SWIDTH 385 0
DWIDTH 13 0
BBX 11 15 1 0
BITMAP
0F80
1860
3860
3060
1000
1000
0F80
3000
7000
E000
E040
E0E0
60C0
71C0
1F00
ENDCHAR

STARTCHAR afii9833
ENCODING 230
SWIDTH 438 0
DWIDTH 14 0
BBX 13 29 2 -6
BITMAP
0600
0838
18F0
19E0
0F00
0400
0400
0800
1000
1000
2000
2000
4000
4000
C000
8000
8000
8000
8000
8000
C000
FE00
7F80
3FC0
0040
0040
0080
1F80
1E00
ENDCHAR

STARTCHAR afii9834
ENCODING 231
SWIDTH 500 0
DWIDTH 17 0
BBX 15 22 1 -7
BITMAP
1C1C
3C3E
4C4E
9C8E
1D0C
1A1C
1C1C
3C18
3818
3838
7038
7030
6070
E070
E060
0060
00E0
00E0
00C0
00C0
01C0
01C0
ENDCHAR

STARTCHAR afii9835
ENCODING 232
SWIDTH 500 0
DWIDTH 17 0
BBX 15 24 2 0
BITMAP
0078
018C
0306
0606
0C06
1C06
1806
380E
380E
300E
700E
7FFC
701C
E01C
E038
E038
C038
C070
C060
C060
C0C0
6180
6300
1C00
ENDCHAR

STARTCHAR afii9836
ENCODING 233
SWIDTH 271 0
DWIDTH 9 0
BBX 7 15 1 0
BITMAP
7E
1C
1C
1C
18
38
38
30
70
70
60
64
E8
F8
60
ENDCHAR

STARTCHAR afii9837
ENCODING 234
SWIDTH 552 0
DWIDTH 18 0
BBX 17 15 1 0
BITMAP
0E0300
7C0F80
1C1300
1C2000
184000
388000
3B8000
358000
39C000
71C000
60C000
60E000
E0E200
E07C00
C07800
ENDCHAR

STARTCHAR afii9838
ENCODING 235
SWIDTH 500 0
DWIDTH 17 0
BBX 15 24 1 0
BITMAP
00C0
01E0
0220
0220
0020
0020
0020
0020
0020
0020
0060
00E0
00E0
01E0
03A0
0720
0720
0E20
1C20
1C20
3822
7026
703C
E018
ENDCHAR

STARTCHAR afii9839
ENCODING 236
SWIDTH 552 0
DWIDTH 18 0
BBX 18 22 -1 -7
BITMAP
0381C0
038180
030380
070380
070300
060700
0E0700
0E0600
0C0600
0C0E00
1C0E00
1C1440
1C2C80
3CCF80
370600
200000
600000
600000
E00000
E00000
E00000
400000
ENDCHAR

STARTCHAR afii9840
ENCODING 237
SWIDTH 438 0
DWIDTH 14 0
BBX 13 15 1 0
BITMAP
F838
3838
1818
1C18
1C10
1C10
0C10
0C20
0C40
0C40
0C80
0D00
0E00
0C00
0800
ENDCHAR

STARTCHAR afii9841
ENCODING 238
SWIDTH 500 0
DWIDTH 17 0
BBX 14 29 2 -6
BITMAP
0304
041C
0678
03C0
0100
0200
0200
0400
00F8
07F0
0800
1000
2000
4000
4000
8000
8000
8000
8000
C000
E000
7E00
7FE0
1FF0
0010
0010
0220
07E0
0780
ENDCHAR

STARTCHAR afii9842
ENCODING 239
SWIDTH 500 0
DWIDTH 17 0
BBX 14 15 1 0
BITMAP
01E0
0618
0C18
181C
381C
301C
701C
6018
E038
E038
E070
E060
60C0
7180
1E00
ENDCHAR

STARTCHAR afii9843
ENCODING 240
SWIDTH 552 0
DWIDTH 18 0
BBX 17 15 1 0
BITMAP
1FFF80
3FFF00
420800
861800
061800
061000
043000
0C3000
0C2000
186000
186000
386100
707200
703E00
603C00
ENDCHAR

STARTCHAR afii9845
ENCODING 241
SWIDTH 500 0
DWIDTH 17 0
BBX 17 21 -1 -6
BITMAP
003C00
00C700
018380
038380
030380
070380
070380
060300
0E0700
0E0600
0C0E00
0C0C00
181800
1C3000
1BC000
380000
380000
300000
700000
700000
E00000
ENDCHAR

STARTCHAR afii9847
ENCODING 242
SWIDTH 438 0
DWIDTH 14 0
BBX 12 20 1 -5
BITMAP
07E0
18F0
3030
2000
4000
4000
8000
8000
8000
8000
8000
C000
7C00
7F80
1FC0
0040
0040
0040
1F80
0E00
ENDCHAR

STARTCHAR afii9846
ENCODING 243
SWIDTH 552 0
DWIDTH 18 0
BBX 17 15 1 0
BITMAP
03FF80
0FEF00
1E1000
381000
701800
701800
E01800
E03800
C03800
C03800
C07000
C0F000
60E000
618000
1E0000
ENDCHAR

STARTCHAR afii9848
ENCODING 244
SWIDTH 438 0
DWIDTH 14 0
BBX 12 15 2 0
BITMAP
3FF0
7FF0
C200
8600
0600
0400
0C00
0C00
0800
1800
1800
1840
1C80
0F00
0E00
ENDCHAR

STARTCHAR afii9849
ENCODING 245
SWIDTH 438 0
DWIDTH 14 0
BBX 12 16 2 0
BITMAP
6080
7060
7020
7030
7010
7010
7010
6030
6030
C030
C060
C060
C0C0
C180
6300
1C00
ENDCHAR

STARTCHAR afii9850
ENCODING 246
SWIDTH 552 0
DWIDTH 18 0
BBX 16 22 1 -7
BITMAP
031C
0C3E
1863
3043
70C3
70C3
E083
E187
E186
C10E
C30C
C31C
C218
6630
36C0
0700
0C00
0C00
0C00
0800
1800
1800
ENDCHAR

STARTCHAR afii9851
ENCODING 247
SWIDTH 500 0
DWIDTH 17 0
BBX 17 22 -1 -7
BITMAP
060380
0F0300
090700
108E00
008C00
009C00
00B800
00F000
00F000
00E000
01C000
01C000
038000
074000
064000
0E4000
1C4000
384000
384200
702400
E03C00
E01800
ENDCHAR

STARTCHAR afii9852
ENCODING 248
SWIDTH 719 0
DWIDTH 24 0
BBX 20 22 4 -7
BITMAP
E06070
7040C0
70C1C0
70C380
70C380
708700
E18700
E18700
E10E00
C30E00
C31C00
C21C00
E63800
667000
3FC000
0C0000
0C0000
0C0000
080000
180000
180000
100000
ENDCHAR

STARTCHAR afii9853
ENCODING 249
SWIDTH 719 0
DWIDTH 24 0
BBX 22 16 1 0
BITMAP
00C000
0700E0
0C0018
180C0C
381C0C
70180C
70180C
70181C
E0301C
E0301C
E02038
E02038
604070
609070
3119E0
1E0F80
ENDCHAR

STARTCHAR afii9975
ENCODING 250
SWIDTH 271 0
DWIDTH 9 0
BBX 10 21 1 0
BITMAP
71C0
71C0
71C0
0000
0000
0000
7E00
1C00
1C00
1C00
1800
3800
3800
3000
7000
7000
6000
6400
E800
F000
6000
ENDCHAR

STARTCHAR afii9976
ENCODING 251
SWIDTH 438 0
DWIDTH 14 0
BBX 12 22 2 0
BITMAP
1C70
1C70
1C70
0000
0000
0000
6080
7060
7020
7030
7010
7010
6010
6010
6030
C030
C060
C060
C0C0
C080
6300
1C00
ENDCHAR

STARTCHAR afii9972
ENCODING 252
SWIDTH 500 0
DWIDTH 17 0
BBX 14 23 1 0
BITMAP
003C
0038
0070
0060
0040
0080
0000
0000
01E0
0618
0C18
181C
381C
301C
701C
6018
E038
E038
E070
E060
60C0
7180
1E00
ENDCHAR

STARTCHAR afii9973
ENCODING 253
SWIDTH 438 0
DWIDTH 14 0
BBX 12 23 2 0
BITMAP
00E0
01C0
0180
0180
0300
0200
0000
6080
7060
7020
7030
7010
7010
7010
6010
6030
C030
C060
C060
C0C0
C080
6300
1C00
ENDCHAR

STARTCHAR afii9974
ENCODING 254
SWIDTH 719 0
DWIDTH 24 0
BBX 22 23 1 0
BITMAP
000780
000700
000600
000C00
000800
000800
000000
00C000
0700E0
0C0018
180C0C
381C0C
70180C
70180C
70181C
E0301C
E0301C
E02038
E02038
604070
609070
3119E0
1E0F80
ENDCHAR
ENDFONT
